<svg width="293.8" height="51.242466201658495" viewBox="0 0 374.65517241379314 65.34463924332992"  xmlns="http://www.w3.org/2000/svg">
    <defs id="SvgjsDefs1670"></defs>
    <g id="SvgjsG1671" featurekey="nRdZyp-0"
        transform="matrix(0.6857354880826733,0,0,0.6857354880826733,-4.114359630077729,0.8855870715039602)"
        fill="#000000">
        <g xmlns="http://www.w3.org/2000/svg" width="100px" height="100%" x="0" y="0" id="SvgjsG1671"
            featurekey="nRdZyp-0" transform="translate(0,-959)">
            <path
                style="text-indent:0;text-transform:none;direction:ltr;block-progression:tb;baseline-shift:baseline;color:;enable-background:accumulate;"
                d="m 13.540789,1013.168 c -4.1612604,0 -7.5408665,3.3922 -7.5408665,7.5693 0,4.1771 3.3796061,7.605 7.5408665,7.605 0.813543,0 1.613976,-0.1361 2.383228,-0.3928 12.281102,18.8997 36.649842,23.2608 54.493227,13.032 0.521221,-0.2991 0.724607,-1.0475 0.426614,-1.571 -0.297992,-0.5234 -1.043503,-0.7275 -1.565078,-0.4284 -16.772953,9.6153 -39.67122,5.6292 -51.327282,-12.1037 1.894251,-1.3812 3.130157,-3.6195 3.130157,-6.1411 0,-4.1771 -3.379252,-7.5693 -7.540866,-7.5693 z"
                fill="#000000" fill-opacity="1" fill-rule="evenodd" stroke="none" marker="none" visibility="visible"
                display="inline" overflow="visible"></path>
            <path
                style="text-indent:0;text-transform:none;direction:ltr;block-progression:tb;baseline-shift:baseline;color:;enable-background:accumulate;"
                d="m 70.417244,970.57299 c -0.951023,0.12132 -1.237323,1.69026 -0.391181,2.14225 13.429842,8.21899 20.928543,24.30182 17.64248,40.55986 -0.392953,-0.067 -0.80185,-0.107 -1.209331,-0.107 -4.161259,0 -7.540866,3.3922 -7.540866,7.5692 0,4.1771 3.379607,7.605 7.540866,7.605 4.16126,0 7.540866,-3.4279 7.540866,-7.605 0,-2.9516 -1.686968,-5.51 -4.161614,-6.748 3.607441,-17.29107 -4.331338,-34.48188 -18.638503,-43.23773 -0.189921,-0.12122 -0.415984,-0.18423 -0.64063,-0.17852 -0.04784,-0.003 -0.09425,-0.003 -0.142087,0 z"
                fill="#000000" fill-opacity="1" fill-rule="evenodd" stroke="none" marker="none" visibility="visible"
                display="inline" overflow="visible"></path>
            <path
                style="text-indent:0;text-transform:none;direction:ltr;block-progression:tb;baseline-shift:baseline;color:;enable-background:accumulate;"
                d="m 50.000001,958.36218 c -4.012441,0 -7.27441,3.16987 -7.505079,7.14083 -17.197086,3.19362 -29.727637,16.85266 -32.5821254,33.06201 a 1.1383515,1.1426463 0 1 0 2.2407874,0.39275 c 2.681221,-15.22486 14.388307,-28.07084 30.518858,-31.1697 0.826653,3.28539 3.802677,5.71266 7.327559,5.71266 4.161259,0 7.540866,-3.39219 7.540866,-7.56928 0,-4.17708 -3.379607,-7.56927 -7.540866,-7.56927 z"
                fill="#000000" fill-opacity="1" fill-rule="evenodd" stroke="none" marker="none" visibility="visible"
                display="inline" overflow="visible"></path>
        </g>
    </g>
    <g id="SvgjsG1672" featurekey="Q4qmbg-0"
        transform="matrix(3.00706751191643,0,0,3.00706751191643,83.55660897080638,-10.396185316880555)" fill="#000000">
        <path
            d="M3.48 13.24 c0 1.18 5 0.62 5 3.74 c0 2.04 -1.8 3.18 -4.04 3.18 c-1.42 0 -2.84 -0.7 -3.96 -1.82 l1.94 -1.94 c0.56 0.68 1.36 1.2 2.02 1.26 s1.22 -0.22 1.32 -0.52 c0.24 -0.76 -1.14 -0.8 -1.56 -0.92 c-1.58 -0.48 -3.42 -1.14 -3.42 -3.1 c0 -2.34 2.44 -3.14 3.66 -3.14 c1.4 0 2.82 0.64 3.96 1.8 l-1.92 1.92 c-0.52 -0.68 -1.42 -1.22 -2.04 -1.22 c-0.32 0 -0.96 0.12 -0.96 0.76 z M14.387708333333332 12.42 c-1.22 0 -2.24 1.08 -2.24 2.66 c0 1.56 1.02 2.64 2.24 2.64 c1.24 0 2.26 -1.08 2.26 -2.64 c0 -1.58 -1.02 -2.66 -2.26 -2.66 z M14.387708333333332 9.98 c2.9 0 5.22 2.18 5.22 5.1 s-2.32 5.08 -5.22 5.08 c-2.88 0 -5.2 -2.16 -5.2 -5.08 s2.32 -5.1 5.2 -5.1 z M27.715416666666663 16.46 l2.08 1.88 c-1.12 1.24 -2.58 1.82 -4.14 1.82 c-2.88 0 -5.2 -2.16 -5.2 -5.08 s2.32 -5.1 5.2 -5.1 c1.56 0 3.02 0.58 4.14 1.82 l-2.08 1.88 c-0.44 -1.02 -1.4 -1.26 -2.06 -1.26 c-1.22 0 -2.24 1.08 -2.24 2.66 c0 1.56 1.02 2.64 2.24 2.64 c0.66 0 1.64 -0.18 2.06 -1.26 z M33.963125 10.12 l0 9.88 l-2.96 0 l0 -9.88 l2.96 0 z M34.043124999999996 7.279999999999999 c0 0.84 -0.68 1.5 -1.58 1.5 c-0.86 0 -1.56 -0.66 -1.56 -1.5 c0 -0.82 0.7 -1.46 1.56 -1.46 c0.9 0 1.58 0.64 1.58 1.46 z M37.890833333333326 13.04 l-2.2 -1.26 c1.1 -1.24 2.58 -1.82 4.12 -1.82 c2.96 0 4.16 1.62 4.16 3.14 l0 6.9 l-2.96 0 l0 -0.7 c-0.46 0.48 -1.28 0.84 -2.2 0.84 c-2.7 0 -3.74 -1.2 -3.74 -3.04 c0 -2.08 1.68 -3.48 4.4 -3.48 l1.54 0 c0 -0.74 -0.56 -1.22 -1.4 -1.22 c-0.86 0 -1.28 0.16 -1.72 0.64 z M41.01083333333333 16.740000000000002 l0 -0.88 l-1.74 0 c-0.78 0 -1.36 0.54 -1.24 1.3 c0.08 0.54 0.56 0.76 1.24 0.76 c1.3 0 1.74 -0.74 1.74 -1.18 z M48.55854166666666 5.119999999999999 l0 14.88 l-2.98 0 l0 -14.88 l2.98 0 z M53.186249999999994 5.119999999999999 l0 14.88 l-2.98 0 l0 -14.88 l2.98 0 z M61.65395833333332 10.12 l3.08 0 s-2.56 6.02 -4.06 9.6 c-1.34 3.18 -2.32 5.1 -4.46 5.1 c-0.88 0 -1.94 -0.86 -2.24 -1.1 l0.86 -2.44 c0.4 0.38 0.92 0.62 1.34 0.62 c1.02 0 1.56 -2.06 1.9 -3.26 l-3.62 -8.52 l3.08 0 l2.06 4.94 c0.66 -1.6 1.42 -3.42 2.06 -4.94 z M76.06937499999998 9.98 c2.9 0 4.82 2.18 4.82 5.1 s-2.12 5.08 -5.02 5.08 c-0.64 0 -1.72 -0.36 -2.04 -0.82 l0 0.66 l-2.96 0 l0 -14.52 l2.96 0 l0 5.34 c0.34 -0.5 1.62 -0.84 2.24 -0.84 z M75.66937499999997 17.92 c1.24 0 2.26 -1.28 2.26 -2.84 c0 -1.58 -1.02 -2.86 -2.26 -2.86 c-1.36 0 -2.24 1.54 -2.24 2.86 s0.9 2.84 2.24 2.84 z M85.25708333333331 10.12 l0 9.88 l-2.96 0 l0 -9.88 l2.96 0 z M85.33708333333331 7.279999999999999 c0 0.84 -0.68 1.5 -1.58 1.5 c-0.86 0 -1.56 -0.66 -1.56 -1.5 c0 -0.82 0.7 -1.46 1.56 -1.46 c0.9 0 1.58 0.64 1.58 1.46 z M91.58479166666663 12.42 c-1.22 0 -2.24 1.08 -2.24 2.66 c0 1.56 1.02 2.64 2.24 2.64 c1.24 0 2.26 -1.08 2.26 -2.64 c0 -1.58 -1.02 -2.66 -2.26 -2.66 z M91.58479166666663 9.98 c2.9 0 5.22 2.18 5.22 5.1 s-2.32 5.08 -5.22 5.08 c-2.88 0 -5.2 -2.16 -5.2 -5.08 s2.32 -5.1 5.2 -5.1 z">
        </path>
    </g>
</svg>